<svg width="1125" height="1168" viewBox="0 0 1125 1168" fill="none" xmlns="http://www.w3.org/2000/svg">
<g id="CREW" clip-path="url(#clip0_331_3)">
<g id="Group">
<path id="Vector" opacity="0.94" d="M108.309 582.081L108.979 565.569L113.834 565.764L113.61 571.348L142.744 572.526L142.528 577.867L113.394 576.689L113.17 582.273L108.315 582.078L108.309 582.081Z" fill="white" fill-opacity="0.05"/>
<path id="Vector_2" opacity="0.94" d="M143.524 559.614L143.091 564.943L109.182 562.179L109.616 556.85L124.148 558.036L124.64 551.98L110.107 550.794L110.55 545.369L144.458 548.134L144.016 553.558L129.483 552.372L128.992 558.428L143.524 559.614Z" fill="white" fill-opacity="0.05"/>
<path id="Vector_3" opacity="0.94" d="M125.97 536.884L126.872 529.601L131.697 530.198L130.795 537.481L140.684 538.702L141.816 529.535L146.642 530.132L144.852 544.605L111.085 540.43L112.875 525.957L117.7 526.554L116.567 535.72L125.974 536.886L125.97 536.884Z" fill="white" fill-opacity="0.05"/>
<path id="Vector_4" opacity="0.94" d="M114.464 515.387L117.387 499.12L122.169 499.976L121.18 505.477L149.879 510.633L148.932 515.894L120.233 510.737L119.243 516.237L114.461 515.381L114.464 515.387Z" fill="white" fill-opacity="0.05"/>
<path id="Vector_5" opacity="0.94" d="M152.421 497.965L151.26 503.184L118.056 495.787L119.217 490.567L133.446 493.74L134.769 487.811L120.54 484.638L121.726 479.323L154.93 486.721L153.744 492.036L139.515 488.863L138.192 494.792L152.421 497.965Z" fill="white" fill-opacity="0.05"/>
<path id="Vector_6" opacity="0.94" d="M122.915 474.735L124.25 469.556L157.197 478.043L155.863 483.222L122.915 474.735Z" fill="white" fill-opacity="0.05"/>
<path id="Vector_7" opacity="0.94" d="M135.78 462.942L135.755 463.037L159.399 469.962L158.049 474.579L125.401 465.015L127.288 458.575L148.348 459.123L148.373 459.027L128.832 453.302L130.17 448.733L162.817 458.297L161.274 463.569L135.78 462.942Z" fill="white" fill-opacity="0.05"/>
<path id="Vector_8" opacity="0.94" d="M153.313 443.978L155.719 446.551L165.605 449.935L163.872 454.994L131.685 443.975L133.417 438.917L147.353 443.686L147.379 443.59L135.686 432.291L137.419 427.232L149.36 439.18L169.611 438.252L167.831 443.452L153.317 443.979L153.313 443.978Z" fill="white" fill-opacity="0.05"/>
<path id="Vector_9" opacity="0.94" d="M153.972 424.188L156.635 417.349L161.163 419.11L158.5 425.95L167.783 429.568L171.136 420.962L175.664 422.724L170.373 436.314L138.669 423.965L143.96 410.375L148.489 412.136L145.135 420.743L153.969 424.182L153.972 424.188Z" fill="white" fill-opacity="0.05"/>
<path id="Vector_10" opacity="0.94" d="M181.271 409.743C180.352 409.659 179.783 409.622 177.247 408.513L172.348 406.373C169.453 405.108 167.958 405.619 166.983 407.844L166.24 409.536L178.931 415.087L176.785 419.985L145.615 406.349L148.849 398.954C151.072 393.877 154.383 392.729 159.195 394.831L161.644 395.902C164.85 397.305 166.451 399.226 166.521 401.854L166.608 401.892C168.706 399.892 171.371 400.103 174.619 401.522L179.43 403.63C180.942 404.295 182.074 404.736 183.447 404.75L181.263 409.736L181.271 409.743ZM152.215 403.398L161.787 407.584L162.624 405.671C163.423 403.846 163.108 402.381 160.613 401.289L157.539 399.946C155.315 398.971 154.001 399.3 153.241 401.038L152.209 403.401L152.215 403.398Z" fill="white" fill-opacity="0.05"/>
<g id="Group 48">
<path id="Vector_11" opacity="0.94" d="M216.415 288.001L227.041 275.347L230.765 278.472L227.171 282.753L249.502 301.508L246.064 305.605L223.732 286.85L220.138 291.132L216.414 288.006L216.415 288.001Z" fill="white" fill-opacity="0.05"/>
<path id="Vector_12" opacity="0.94" d="M258.013 291.774L254.408 295.726L229.281 272.79L232.884 268.844L243.655 278.672L247.748 274.185L236.978 264.357L240.647 260.336L265.774 283.271L262.105 287.292L251.334 277.464L247.241 281.951L258.011 291.779L258.013 291.774Z" fill="white" fill-opacity="0.05"/>
<path id="Vector_13" opacity="0.94" d="M258.038 263.058L263.208 257.847L266.658 261.274L261.488 266.485L268.56 273.502L275.066 266.944L278.517 270.366L268.249 280.715L244.104 256.75L254.373 246.401L257.824 249.822L251.317 256.38L258.044 263.055L258.038 263.058Z" fill="white" fill-opacity="0.05"/>
<path id="Vector_14" opacity="0.94" d="M280.406 233.029L281.216 233.933C283.554 236.535 284.221 238.875 283.198 241.301L283.265 241.375C286.145 240.288 288.665 241.423 291.07 244.098L292.921 246.157C296.43 250.059 296.253 254.009 292.276 257.585L286.022 263.207L263.279 237.902L269.28 232.505C273.402 228.803 276.893 229.125 280.401 233.028L280.406 233.029ZM279.767 248.24L286.752 256.011L289.032 253.962C290.372 252.76 290.542 251.495 288.852 249.617L286.871 247.412C284.758 245.064 283.353 245.021 281.543 246.646L279.772 248.241L279.767 248.24ZM270.507 237.94L276.52 244.626L278.075 243.23C279.557 241.897 279.876 240.436 278.056 238.411L276.791 237.003C275.164 235.198 273.836 234.955 272.428 236.221L270.512 237.942L270.507 237.94Z" fill="white" fill-opacity="0.05"/>
<path id="Vector_15" opacity="0.94" d="M282.773 220.811L299.479 241.055C301.025 242.931 302.409 242.923 303.717 241.84C305.03 240.759 305.296 239.402 303.75 237.526L287.044 217.281L290.942 214.062L307.43 234.045C310.896 238.243 310.774 242.376 306.726 245.719C302.678 249.062 298.597 248.395 295.131 244.197L278.643 224.214L282.768 220.81L282.773 220.811Z" fill="white" fill-opacity="0.05"/>
<path id="Vector_16" opacity="0.94" d="M294.463 211.358L298.692 208.084L319.526 234.983L315.297 238.257L294.463 211.358Z" fill="white" fill-opacity="0.05"/>
<path id="Vector_17" opacity="0.94" d="M302.337 205.279L306.653 202.124L323.858 225.672L330.962 220.479L333.831 224.403L322.412 232.75L302.337 205.279Z" fill="white" fill-opacity="0.05"/>
<path id="Vector_18" opacity="0.94" d="M316.489 195.007L323.508 190.288C327.948 187.304 331.777 188.303 334.817 192.819L344.413 207.101C347.452 211.622 346.924 215.545 342.489 218.53L335.47 223.249L316.488 195.011L316.489 195.007ZM323.64 196.058L337.198 216.229L339.698 214.545C341.109 213.597 341.472 212.301 340.115 210.286L330.247 195.6C328.89 193.584 327.556 193.427 326.145 194.375L323.644 196.059L323.64 196.058Z" fill="white" fill-opacity="0.05"/>
<path id="Vector_19" opacity="0.94" d="M345.96 192.871L352.211 189.029L354.757 193.169L348.505 197.011L353.72 205.503L361.588 200.67L364.134 204.81L351.711 212.443L333.905 183.451L346.327 175.818L348.873 179.958L341.005 184.791L345.966 192.868L345.96 192.871Z" fill="white" fill-opacity="0.05"/>
<path id="Vector_20" opacity="0.94" d="M376.436 197.846C375.755 197.227 375.322 196.852 373.97 194.433L371.358 189.769C369.813 187.014 368.312 186.516 366.194 187.702L364.581 188.602L371.344 200.689L366.68 203.302L350.067 173.606L357.106 169.666C361.943 166.96 365.279 168.044 367.841 172.624L369.145 174.957C370.851 178.012 370.97 180.509 369.435 182.647L369.484 182.732C372.364 182.401 374.361 184.181 376.092 187.277L378.655 191.857C379.462 193.297 380.099 194.335 381.181 195.178L376.429 197.834L376.436 197.846ZM357.108 175.248L362.208 184.369L364.031 183.351C365.771 182.377 366.406 181.02 365.073 178.642L363.436 175.714C362.251 173.59 361.004 173.062 359.353 173.988L357.103 175.247L357.108 175.248Z" fill="white" fill-opacity="0.05"/>
</g>
<g id="Group 66">
<path id="Vector_21" opacity="0.94" d="M477.993 122.024L494.113 118.374L495.186 123.113L489.735 124.347L496.17 152.792L490.957 153.975L484.523 125.526L479.072 126.76L477.999 122.02L477.993 122.024Z" fill="white"/>
<path id="Vector_22" opacity="0.94" d="M508.829 150.199L503.573 151.162L497.453 117.694L502.71 116.732L505.332 131.079L511.309 129.984L508.687 115.637L514.04 114.659L520.159 148.126L514.806 149.104L512.184 134.757L506.207 135.852L508.829 150.199Z" fill="white"/>
<path id="Vector_23" opacity="0.94" d="M526.233 127.359L533.503 126.344L534.174 131.156L526.908 132.172L528.286 142.042L537.431 140.764L538.102 145.576L523.661 147.591L518.958 113.894L533.399 111.878L534.069 116.69L524.923 117.968L526.234 127.354L526.233 127.359Z" fill="white"/>
<path id="Vector_24" opacity="0.94" d="M562.816 130.516L563.189 135.02C563.636 140.443 561.178 143.771 555.949 144.203C550.719 144.635 547.748 141.76 547.3 136.336L545.846 118.706C545.398 113.282 547.856 109.955 553.086 109.522C558.315 109.09 561.286 111.966 561.734 117.389L562.006 120.684L556.97 121.101L556.67 117.466C556.469 115.044 555.328 114.211 553.633 114.353C551.938 114.495 550.946 115.502 551.147 117.924L552.658 136.234C552.858 138.656 553.996 139.442 555.691 139.3C557.386 139.159 558.381 138.198 558.18 135.777L557.779 130.933L562.816 130.516Z" fill="white"/>
<path id="Vector_25" opacity="0.94" d="M577.937 142.525C577.613 141.662 577.393 141.138 577.279 138.366L577.061 133.023C576.931 129.868 575.815 128.745 573.39 128.843L571.544 128.919L572.111 142.759L566.769 142.978L565.379 108.977L573.441 108.647C578.98 108.419 581.463 110.895 581.675 116.144L581.785 118.812C581.927 122.309 580.901 124.591 578.571 125.803L578.575 125.902C581.292 126.91 582.268 129.398 582.417 132.947L582.63 138.191C582.697 139.84 582.796 141.054 583.379 142.297L577.939 142.52L577.937 142.525ZM570.916 113.624L571.345 124.067L573.434 123.983C575.424 123.904 576.604 122.977 576.493 120.257L576.354 116.905C576.253 114.474 575.384 113.441 573.491 113.52L570.916 113.624Z" fill="white"/>
<path id="Vector_26" opacity="0.94" d="M591.286 122.591L598.623 122.586L598.625 127.448L591.288 127.452L591.296 137.416L600.531 137.41L600.533 142.271L585.951 142.284L585.924 108.254L600.507 108.241L600.509 113.102L591.273 113.113L591.281 122.59L591.286 122.591Z" fill="white"/>
<path id="Vector_27" opacity="0.94" d="M620.803 143L615.412 142.786L614.731 136.58L608.174 136.32L607.008 142.453L602.102 142.26L608.881 108.474L616.698 108.78L620.8 142.994L620.803 143ZM609.039 131.738L614.189 131.94L612.343 114.646L612.248 114.641L609.046 131.735L609.039 131.738Z" fill="white"/>
<path id="Vector_28" opacity="0.94" d="M622.144 109.024L638.62 110.267L638.254 115.113L632.681 114.692L630.488 143.773L625.156 143.37L627.349 114.289L621.777 113.869L622.144 109.024Z" fill="white"/>
<path id="Vector_29" opacity="0.94" d="M640.584 118.653C641.206 113.246 644.41 110.484 649.624 111.081C654.838 111.677 657.333 115.098 656.71 120.51L654.684 138.088C654.062 143.496 650.858 146.258 645.639 145.66C640.42 145.061 637.93 141.642 638.554 136.23L640.579 118.652L640.584 118.653ZM643.833 137.182C643.555 139.595 644.513 140.635 646.201 140.83C647.889 141.024 649.061 140.228 649.339 137.815L651.44 119.561C651.718 117.148 650.76 116.107 649.072 115.913C647.384 115.719 646.212 116.515 645.934 118.928L643.833 137.182Z" fill="white"/>
<path id="Vector_30" opacity="0.94" d="M667.867 148.373C667.713 147.463 667.604 146.907 668.039 144.167L668.874 138.887C669.369 135.769 668.494 134.448 666.093 134.066L664.271 133.78L662.111 147.465L656.832 146.63L662.142 113.02L670.113 114.277C675.584 115.141 677.537 118.056 676.717 123.242L676.302 125.885C675.754 129.343 674.302 131.375 671.776 132.111L671.76 132.209C674.224 133.728 674.695 136.365 674.14 139.866L673.32 145.053C673.064 146.684 672.919 147.894 673.254 149.225L667.876 148.376L667.867 148.373ZM666.658 118.651L665.026 128.975L667.089 129.299C669.059 129.609 670.392 128.937 670.82 126.246L671.346 122.931C671.724 120.529 671.079 119.346 669.203 119.051L666.659 118.647L666.658 118.651Z" fill="white"/>
</g>
<g id="Group 60">
<path id="Vector_31" opacity="0.94" d="M794.546 151.641L809.465 158.751L807.378 163.138L802.333 160.734L789.79 187.066L784.964 184.765L797.507 158.433L792.463 156.029L794.552 151.637L794.546 151.641Z" fill="white" fill-opacity="0.5"/>
<path id="Vector_32" opacity="0.94" d="M801.344 192.854L796.617 190.354L812.513 160.271L817.24 162.771L810.429 175.664L815.799 178.502L822.61 165.609L827.424 168.152L811.528 198.235L806.714 195.692L813.525 182.799L808.155 179.961L801.344 192.854Z" fill="white" fill-opacity="0.5"/>
<path id="Vector_33" opacity="0.94" d="M829.147 185.674L835.488 189.372L833.035 193.571L826.695 189.873L821.674 198.48L829.649 203.136L827.197 207.334L814.602 199.982L831.752 170.593L844.347 177.945L841.895 182.144L833.92 177.488L829.142 185.673L829.147 185.674Z" fill="white" fill-opacity="0.5"/>
<path id="Vector_34" opacity="0.94" d="M854.715 184.413L859.184 187.351L843.152 211.72L850.501 216.558L847.83 220.617L836.012 212.84L854.715 184.413Z" fill="white" fill-opacity="0.5"/>
<path id="Vector_35" opacity="0.94" d="M863.553 231.822L859.168 228.681L862.01 223.122L856.674 219.301L852.331 223.783L848.337 220.925L872.572 196.427L878.936 200.985L863.553 231.822ZM859.917 215.945L864.109 218.943L872.074 203.479L871.997 203.423L859.923 215.941L859.917 215.945Z" fill="white" fill-opacity="0.5"/>
<path id="Vector_36" opacity="0.94" d="M890.228 209.477L874.054 230.155C872.557 232.068 872.862 233.417 874.202 234.466C875.542 235.515 876.921 235.485 878.422 233.573L894.596 212.896L898.578 216.012L882.612 236.423C879.257 240.711 875.196 241.482 871.061 238.248C866.926 235.014 866.7 230.887 870.055 226.599L886.02 206.189L890.231 209.483L890.228 209.477Z" fill="white" fill-opacity="0.5"/>
<path id="Vector_37" opacity="0.94" d="M899.857 229.304L899.782 229.238L883.768 247.973L880.111 244.845L902.219 218.983L907.317 223.34L898.182 242.328L898.258 242.389L911.492 226.907L915.112 230L893.003 255.862L888.829 252.29L899.854 229.293L899.857 229.304Z" fill="white" fill-opacity="0.5"/>
<path id="Vector_38" opacity="0.94" d="M915.582 259.497L912.5 262.803C908.789 266.787 904.678 267.208 900.834 263.626C896.995 260.045 897.123 255.914 900.833 251.93L912.892 238.982C916.603 234.998 920.714 234.578 924.558 238.159C928.397 241.74 928.269 245.871 924.559 249.855L922.304 252.275L918.604 248.828L921.087 246.162C922.743 244.383 922.592 242.977 921.347 241.82C920.102 240.663 918.689 240.608 917.033 242.387L904.511 255.831C902.855 257.61 903.042 258.979 904.285 260.141C905.53 261.298 906.908 261.39 908.564 259.611L911.875 256.053L915.576 259.5L915.582 259.497Z" fill="white" fill-opacity="0.5"/>
<path id="Vector_39" opacity="0.94" d="M912.775 274.607L909.021 270.798L933.258 246.915L937.011 250.723L926.624 260.96L930.885 265.286L941.273 255.05L945.095 258.928L920.858 282.811L917.036 278.933L927.423 268.697L923.162 264.37L912.775 274.607Z" fill="white" fill-opacity="0.5"/>
<path id="Vector_40" opacity="0.94" d="M941.445 276.149L946.375 281.587L942.772 284.853L937.842 279.414L930.455 286.108L936.657 292.952L933.054 296.218L923.263 285.409L948.476 262.556L958.267 273.364L954.664 276.63L948.463 269.787L941.439 276.152L941.445 276.149Z" fill="white" fill-opacity="0.5"/>
<path id="Vector_41" opacity="0.94" d="M942.178 307.034C942.66 306.251 942.949 305.759 945.075 303.981L949.18 300.556C951.607 298.53 951.815 296.964 950.257 295.094L949.075 293.678L938.441 302.56L935.017 298.454L961.132 276.642L966.303 282.835C969.853 287.086 969.405 290.57 965.373 293.933L963.319 295.648C960.635 297.892 958.202 298.468 955.815 297.353L955.743 297.416C956.598 300.184 955.217 302.475 952.494 304.75L948.466 308.114C947.2 309.172 946.295 309.987 945.671 311.209L942.179 307.029L942.178 307.034ZM960.825 283.862L952.802 290.562L954.143 292.169C955.418 293.698 956.87 294.07 958.962 292.324L961.535 290.173C963.399 288.613 963.69 287.293 962.477 285.843L960.825 283.862Z" fill="white" fill-opacity="0.5"/>
</g>
</g>
</g>
<defs>
<clipPath id="clip0_331_3">
<rect width="968" height="908" fill="white" transform="translate(0 936.209) rotate(-75.2307)"/>
</clipPath>
</defs>
</svg>
