<svg width="968" height="908" viewBox="0 0 968 908" fill="none" xmlns="http://www.w3.org/2000/svg" overflow="visible">
  <g>
    <g id="Group">
    <g id="Group 67">
    <path id="Vector" opacity="0.94" d="M369.962 14.4508L386.097 10.89L387.146 15.6328L381.69 16.8395L387.977 45.3058L382.758 46.4581L376.472 17.9918L371.016 19.1985L369.967 14.4557L369.962 14.4508Z" fill="white"/>
    <path id="Vector_2" opacity="0.94" d="M400.659 42.7687L395.396 43.7084L389.426 10.2224L394.689 9.28272L397.246 23.6346L403.226 22.5664L400.669 8.21449L406.025 7.26001L411.995 40.746L406.639 41.7005L404.081 27.3487L398.101 28.4169L400.659 42.7687Z" fill="white"/>
    <path id="Vector_3" opacity="0.94" d="M418.158 20.0046L425.429 19.0204L426.082 23.8373L418.811 24.8215L420.152 34.6927L429.302 33.4514L429.955 38.2683L415.507 40.2267L410.937 6.51817L425.385 4.55975L426.038 9.37668L416.887 10.618L418.158 20.0095V20.0046Z" fill="white"/>
    <path id="Vector_4" opacity="0.94" d="M436.009 3.40248L452.48 2.08203L452.871 6.92368L447.302 7.36878L449.631 36.4286L444.304 36.8539L441.974 7.79409L436.405 8.23919L436.014 3.39754L436.009 3.40248Z" fill="white"/>
    <path id="Vector_5" opacity="0.94" d="M462.526 35.6571L457.184 35.8648L455.873 1.87931L461.215 1.6716L461.774 16.2361L467.843 16.0037L467.284 1.43916L472.725 1.23145L474.036 35.217L468.595 35.4247L468.036 20.8602L461.967 21.0926L462.526 35.6571Z" fill="white"/>
    <path id="Vector_6" opacity="0.94" d="M477.464 1.21162L482.81 1.18195L483.003 35.1971L477.656 35.2268L477.464 1.21162Z" fill="white"/>
    <path id="Vector_7" opacity="0.94" d="M492.144 10.6427H492.045L491.377 35.2664L486.57 35.1378L487.494 1.13745L494.202 1.32043L499.039 21.8196H499.138L499.692 1.4688L504.45 1.59738L503.525 35.5977L498.035 35.4494L492.144 10.6427Z" fill="white"/>
    <path id="Vector_8" opacity="0.94" d="M514.946 22.7592L513.071 25.7414L512.32 36.1615L506.988 35.7758L509.436 1.84961L514.768 2.23536L513.709 16.9235H513.808L521.752 2.7398L527.084 3.12555L518.577 17.7148L524.636 37.0567L519.155 36.661L514.946 22.7642V22.7592Z" fill="white"/>
    <path id="Vector_9" opacity="0.94" d="M534.246 18.3528L541.537 19.1836L540.988 24.0104L533.697 23.1796L532.564 33.0755L541.74 34.124L541.191 38.9508L526.703 37.299L530.561 3.5014L545.049 5.1532L544.5 9.98002L535.324 8.93157L534.251 18.3478L534.246 18.3528Z" fill="white"/>
    <path id="Vector_10" opacity="0.94" d="M555.169 41.0625C555.015 40.1525 554.907 39.5937 555.332 36.8588L556.153 31.577C556.638 28.4564 555.762 27.1409 553.363 26.7651L551.538 26.4782L549.406 40.1624L544.124 39.3365L549.362 5.72687L557.335 6.96819C562.811 7.82376 564.764 10.7317 563.958 15.9196L563.548 18.5605C563.008 22.0174 561.559 24.0549 559.037 24.7918L559.022 24.8858C561.49 26.404 561.965 29.035 561.421 32.5365L560.61 37.7243C560.352 39.3563 560.214 40.563 560.55 41.8934L555.174 41.0526L555.169 41.0625ZM553.898 11.3549L552.29 21.6761L554.353 21.9976C556.321 22.3042 557.657 21.6267 558.077 18.9363L558.591 15.6228C558.967 13.2243 558.314 12.0373 556.44 11.7455L553.893 11.3499L553.898 11.3549Z" fill="white"/>
    </g>
    <g id="Group 48">
    <path id="Vector_11" opacity="0.94" d="M681.822 44.0101L696.764 51.0574L694.692 55.454L689.637 53.0702L677.197 79.4397L672.359 77.1598L684.799 50.7904L679.744 48.4066L681.817 44.0101H681.822Z" fill="white" fill-opacity="0.5"/>
    <path id="Vector_12" opacity="0.94" d="M688.776 85.1864L684.037 82.7087L699.806 52.5707L704.54 55.0484L697.783 67.9661L703.165 70.7801L709.921 57.8624L714.744 60.3846L698.975 90.5226L694.153 88.0003L700.909 75.0827L695.528 72.2687L688.771 85.1864H688.776Z" fill="white" fill-opacity="0.5"/>
    <path id="Vector_13" opacity="0.94" d="M716.544 77.8917L722.9 81.5613L720.466 85.7699L714.11 82.1003L709.13 90.7253L717.128 95.3444L714.699 99.553L702.076 92.2634L719.091 62.8129L731.714 70.1025L729.286 74.3112L721.287 69.6921L716.549 77.8967L716.544 77.8917Z" fill="white" fill-opacity="0.5"/>
    <path id="Vector_14" opacity="0.94" d="M751.276 91.8627L750.609 92.8766C748.69 95.7994 746.597 97.0407 743.991 96.6698L743.936 96.7538C745.722 99.2612 745.267 101.986 743.293 104.993L741.775 107.308C738.896 111.694 735.033 112.53 730.562 109.597L723.533 104.983L742.2 76.5465L748.947 80.9727C753.576 84.0142 754.155 87.4711 751.276 91.8578V91.8627ZM736.408 95.1218L730.675 103.856L733.238 105.537C734.741 106.526 736.007 106.368 737.392 104.256L739.02 101.778C740.751 99.1376 740.434 97.7677 738.401 96.4324L736.408 95.1268V95.1218ZM744.005 83.5444L739.074 91.0616L740.82 92.2089C742.487 93.3019 743.981 93.2376 745.475 90.9627L746.513 89.3801C747.844 87.3475 747.74 86.0023 746.157 84.9638L744.005 83.5493V83.5444Z" fill="white" fill-opacity="0.5"/>
    <path id="Vector_15" opacity="0.94" d="M763.691 91.0369L748.378 112.347C746.958 114.32 747.319 115.656 748.699 116.645C750.079 117.639 751.459 117.55 752.879 115.576L768.192 94.2663L772.298 97.2138L757.182 118.247C754.007 122.668 749.981 123.603 745.717 120.542C741.453 117.481 741.058 113.366 744.233 108.945L759.349 87.9113L763.691 91.0319V91.0369Z" fill="white" fill-opacity="0.5"/>
    <path id="Vector_16" opacity="0.94" d="M775.81 99.9289L780.053 103.183L759.359 130.181L755.115 126.926L775.81 99.9289Z" fill="white" fill-opacity="0.5"/>
    <path id="Vector_17" opacity="0.94" d="M783.694 105.992L787.844 109.36L769.464 131.996L776.294 137.539L773.233 141.313L762.252 132.401L783.694 105.992Z" fill="white" fill-opacity="0.5"/>
    <path id="Vector_18" opacity="0.94" d="M797.232 117.055L803.583 122.639C807.599 126.17 807.609 130.126 804.018 134.216L792.656 147.134C789.061 151.224 785.133 151.713 781.117 148.187L774.766 142.604L797.227 117.055H797.232ZM798.038 124.236L781.992 142.485L784.258 144.473C785.534 145.596 786.879 145.615 788.482 143.791L800.165 130.507C801.767 128.682 801.579 127.352 800.303 126.229L798.038 124.241V124.236Z" fill="white" fill-opacity="0.5"/>
    <path id="Vector_19" opacity="0.94" d="M806.808 145.002L812.115 150.066L808.761 153.583L803.454 148.519L796.574 155.724L803.251 162.099L799.898 165.615L789.352 155.551L812.842 130.947L823.387 141.011L820.034 144.528L813.356 138.153L806.813 145.007L806.808 145.002Z" fill="white" fill-opacity="0.5"/>
    <path id="Vector_20" opacity="0.94" d="M809.765 175.734C810.191 174.918 810.443 174.403 812.436 172.48L816.28 168.765C818.55 166.57 818.649 164.992 816.962 163.246L815.681 161.916L805.719 171.535L802.005 167.692L826.479 144.063L832.083 149.864C835.931 153.85 835.733 157.351 831.959 160.996L830.035 162.851C827.517 165.279 825.133 166.031 822.675 165.091L822.606 165.16C823.659 167.86 822.448 170.244 819.895 172.707L816.121 176.352C814.934 177.499 814.093 178.379 813.554 179.641L809.775 175.724L809.765 175.734ZM826.686 151.288L819.168 158.543L820.617 160.047C822.002 161.481 823.476 161.748 825.435 159.854L827.849 157.524C829.6 155.838 829.793 154.498 828.477 153.138L826.686 151.283V151.288Z" fill="white" fill-opacity="0.5"/>
    </g>
    <path id="Vector_21" opacity="0.94" d="M908.952 254.59L916.589 269.243L912.281 271.489L909.699 266.533L883.84 280.005L881.367 275.267L907.231 261.795L904.649 256.84L908.957 254.595L908.952 254.59Z" fill="white"/>
    <path id="Vector_22" opacity="0.94" d="M889.573 291.582L887.302 286.745L918.098 272.3L920.368 277.136L907.167 283.328L909.748 288.827L922.95 282.636L925.26 287.561L894.465 302.007L892.155 297.082L905.356 290.89L902.774 285.39L889.573 291.582Z" fill="white"/>
    <path id="Vector_23" opacity="0.94" d="M916.089 302.586L918.924 309.356L914.442 311.231L911.608 304.465L902.418 308.313L905.984 316.829L901.503 318.703L895.874 305.256L927.253 292.121L932.882 305.568L928.401 307.442L924.834 298.926L916.094 302.586H916.089Z" fill="white"/>
    <path id="Vector_24" opacity="0.94" d="M922.361 338.757L918.103 340.266C912.973 342.081 909.13 340.553 907.379 335.607C905.628 330.662 907.651 327.056 912.78 325.241L929.454 319.341C934.583 317.526 938.427 319.054 940.178 324C941.928 328.945 939.905 332.551 934.776 334.366L931.66 335.469L929.973 330.706L933.411 329.489C935.701 328.678 936.216 327.363 935.647 325.761C935.078 324.158 933.851 323.456 931.561 324.267L914.244 330.395C911.954 331.206 911.484 332.506 912.053 334.109C912.622 335.711 913.804 336.428 916.094 335.617L920.675 333.995L922.361 338.757Z" fill="white"/>
    <path id="Vector_25" opacity="0.94" d="M914.606 356.437C915.357 355.903 915.808 355.557 918.459 354.741L923.568 353.168C926.585 352.239 927.387 350.874 926.674 348.554L926.13 346.789L912.894 350.864L911.321 345.755L943.838 335.745L946.212 343.456C947.844 348.752 946.083 351.784 941.063 353.327L938.511 354.113C935.167 355.142 932.699 354.731 930.933 352.788L930.839 352.817C930.557 355.701 928.401 357.278 925.008 358.327L919.992 359.87C918.414 360.354 917.267 360.76 916.213 361.64L914.611 356.437H914.606ZM940.756 342.283L930.77 345.36L931.383 347.358C931.967 349.262 933.164 350.167 935.766 349.365L938.971 348.376C941.295 347.659 942.072 346.556 941.513 344.746L940.756 342.283Z" fill="white"/>
    <path id="Vector_26" opacity="0.94" d="M937.279 364.261L939.154 371.353L934.455 372.595L932.58 365.503L922.95 368.05L925.309 376.976L920.61 378.218L916.881 364.123L949.773 355.424L953.503 369.518L948.804 370.76L946.439 361.833L937.279 364.256V364.261Z" fill="white"/>
    <path id="Vector_27" opacity="0.94" d="M925.072 398L923.904 392.733L929.731 390.492L928.312 384.088L922.084 384.523L921.021 379.731L955.412 377.674L957.108 385.309L925.077 397.995L925.072 398ZM932.961 383.757L934.079 388.786L950.327 382.594L950.307 382.5L932.966 383.762L932.961 383.757Z" fill="white"/>
    <path id="Vector_28" opacity="0.94" d="M958.261 390.636L961.258 406.882L956.48 407.762L955.466 402.268L926.793 407.559L925.823 402.302L954.497 397.011L953.483 391.516L958.261 390.636Z" fill="white"/>
    <path id="Vector_29" opacity="0.94" d="M953.651 410.917C959.037 410.141 962.525 412.534 963.276 417.727C964.028 422.92 961.357 426.204 955.966 426.98L938.456 429.502C933.07 430.279 929.583 427.885 928.831 422.688C928.079 417.49 930.75 414.211 936.141 413.434L953.651 410.912V410.917ZM936.567 418.781C934.163 419.127 933.401 420.319 933.644 422C933.886 423.682 934.954 424.611 937.358 424.265L955.54 421.644C957.944 421.298 958.706 420.106 958.464 418.425C958.221 416.743 957.153 415.813 954.749 416.159L936.567 418.781Z" fill="white"/>
    <path id="Vector_30" opacity="0.94" d="M931.873 444.868C932.714 444.487 933.223 444.24 935.983 443.963L941.3 443.424C944.441 443.107 945.495 441.926 945.252 439.507L945.064 437.672L931.284 439.072L930.745 433.756L964.592 430.323L965.408 438.35C965.967 443.859 963.647 446.49 958.424 447.019L955.763 447.291C952.281 447.643 949.946 446.757 948.591 444.502L948.492 444.512C947.651 447.282 945.223 448.409 941.696 448.765L936.473 449.294C934.831 449.462 933.624 449.631 932.422 450.293L931.873 444.878V444.868ZM960.299 436.124L949.902 437.178L950.114 439.255C950.317 441.238 951.306 442.356 954.017 442.084L957.356 441.747C959.774 441.5 960.754 440.575 960.561 438.686L960.304 436.124H960.299Z" fill="white"/>
    <path id="Vector_31" opacity="0.94" d="M961.001 568.17L957.929 584.406L953.156 583.506L954.195 578.016L925.542 572.601L926.536 567.349L955.189 572.764L956.228 567.274L961.006 568.174L961.001 568.17Z" fill="white"/>
    <path id="Vector_32" opacity="0.94" d="M922.89 585.246L924.102 580.039L957.237 587.739L956.025 592.946L941.825 589.648L940.449 595.563L954.65 598.861L953.418 604.163L920.284 596.463L921.515 591.161L935.716 594.46L937.091 588.545L922.89 585.246Z" fill="white"/>
    <path id="Vector_33" opacity="0.94" d="M936.918 610.295L934.959 617.367L930.275 616.067L932.234 608.995L922.633 606.334L920.165 615.231L915.481 613.93L919.379 599.88L952.162 608.97L948.265 623.02L943.58 621.72L946.049 612.823L936.918 610.29V610.295Z" fill="white"/>
    <path id="Vector_34" opacity="0.94" d="M944.654 634.692L942.952 639.761L915.308 630.473L912.503 638.811L907.898 637.263L912.404 623.856L944.654 634.692Z" fill="white"/>
    <path id="Vector_35" opacity="0.94" d="M901.073 655.319L902.992 650.28L909.091 651.61L911.425 645.478L905.984 642.421L907.73 637.832L937.591 655.017L934.806 662.332L901.073 655.319ZM915.496 647.757L913.666 652.574L930.646 656.333L930.681 656.244L915.501 647.762L915.496 647.757Z" fill="white"/>
    <path id="Vector_36" opacity="0.94" d="M929.474 675.413L905.361 665.047C903.13 664.087 901.904 664.725 901.231 666.288C900.558 667.851 900.939 669.176 903.17 670.141L927.283 680.507L925.284 685.15L901.483 674.918C896.483 672.767 894.702 669.038 896.774 664.216C898.847 659.394 902.779 658.123 907.78 660.274L931.581 670.507L929.469 675.418L929.474 675.413Z" fill="white"/>
    <path id="Vector_37" opacity="0.94" d="M912.761 689.775L912.805 689.685L890.611 678.979L892.704 674.646L923.341 689.428L920.427 695.467L899.742 691.476L899.703 691.565L918.043 700.412L915.976 704.7L885.339 689.918L887.728 684.972L912.771 689.77L912.761 689.775Z" fill="white"/>
    <path id="Vector_38" opacity="0.94" d="M887.579 712.672L883.598 710.536C878.8 707.964 877.346 704.097 879.829 699.468C882.312 694.844 886.338 693.914 891.136 696.486L906.726 704.843C911.524 707.415 912.978 711.283 910.495 715.912C908.012 720.536 903.986 721.465 899.188 718.894L896.275 717.331L898.664 712.875L901.874 714.596C904.016 715.743 905.336 715.239 906.138 713.74C906.939 712.242 906.632 710.862 904.49 709.715L888.302 701.035C886.16 699.888 884.884 700.417 884.077 701.916C883.276 703.414 883.538 704.769 885.68 705.917L889.963 708.211L887.574 712.667L887.579 712.672Z" fill="white"/>
    <path id="Vector_39" opacity="0.94" d="M872.256 713.81L874.981 709.21L904.248 726.554L901.523 731.154L888.979 723.721L885.883 728.943L898.426 736.376L895.652 741.059L866.385 723.716L869.16 719.032L881.703 726.465L884.8 721.243L872.256 713.81Z" fill="white"/>
    <path id="Vector_40" opacity="0.94" d="M878.073 741.92L874.071 748.072L869.996 745.421L873.997 739.269L865.643 733.834L860.608 741.574L856.532 738.923L864.486 726.703L893.005 745.253L885.052 757.474L880.976 754.823L886.012 747.083L878.068 741.915L878.073 741.92Z" fill="white"/>
    <path id="Vector_41" opacity="0.94" d="M848.4 750.5C849.281 750.767 849.83 750.921 852.09 752.523L856.448 755.619C859.025 757.449 860.593 757.251 862.003 755.268L863.071 753.764L851.774 745.748L854.87 741.391L882.613 761.079L877.944 767.656C874.739 772.172 871.257 772.627 866.978 769.585L864.797 768.037C861.943 766.014 860.766 763.809 861.236 761.217L861.157 761.163C858.698 762.696 856.131 761.944 853.238 759.892L848.959 756.855C847.614 755.901 846.595 755.233 845.255 754.941L848.405 750.5H848.4ZM875.555 762.622L867.033 756.573L865.821 758.28C864.669 759.902 864.678 761.4 866.899 762.978L869.635 764.916C871.618 766.321 872.968 766.267 874.061 764.724L875.555 762.622Z" fill="white"/>
    </g>
  </g>
</svg>
