<svg width="1321" height="1311" viewBox="0 0 1321 1311" fill="none" xmlns="http://www.w3.org/2000/svg">
<g id="CREW" clip-path="url(#clip0_164_1182)">
<g id="Group">
<g id="Group 64">
<path id="Vector" opacity="0.94" d="M301.847 376.528L312.453 363.858L316.178 366.975L312.594 371.261L334.951 389.97L331.521 394.068L309.164 375.359L305.58 379.645L301.854 376.529L301.847 376.528Z" fill="white" fill-opacity="0.05"/>
<path id="Vector_2" opacity="0.94" d="M343.447 380.218L339.852 384.175L314.682 361.297L318.276 357.34L329.063 367.147L333.147 362.65L322.361 352.844L326.021 348.818L351.191 371.695L347.531 375.721L336.745 365.915L332.66 370.412L343.447 380.218Z" fill="white" fill-opacity="0.05"/>
<path id="Vector_3" opacity="0.94" d="M343.411 351.505L348.569 346.287L352.027 349.703L346.868 354.922L353.956 361.922L360.446 355.352L363.904 358.769L353.656 369.14L329.458 345.232L339.706 334.861L343.163 338.277L336.674 344.846L343.414 351.509L343.411 351.505Z" fill="white" fill-opacity="0.05"/>
<path id="Vector_4" opacity="0.94" d="M347.414 327.458L359.654 316.357L362.919 319.953L358.779 323.706L378.365 345.3L374.405 348.889L354.82 327.295L350.68 331.047L347.415 327.451L347.414 327.458Z" fill="white" fill-opacity="0.05"/>
<path id="Vector_5" opacity="0.94" d="M388.107 336.817L384.003 340.243L362.218 314.125L366.322 310.7L375.656 321.894L380.321 318.005L370.987 306.811L375.169 303.325L396.955 329.442L392.772 332.928L383.438 321.734L378.773 325.623L388.107 336.817Z" fill="white" fill-opacity="0.05"/>
<path id="Vector_6" opacity="0.94" d="M378.91 300.416L383.127 297.129L404.045 323.952L399.828 327.24L378.91 300.416Z" fill="white" fill-opacity="0.05"/>
<path id="Vector_7" opacity="0.94" d="M396.295 298.924L396.217 298.985L410.72 318.895L406.833 321.728L386.81 294.234L392.234 290.285L408.579 303.568L408.658 303.507L396.673 287.05L400.52 284.247L420.544 311.742L416.105 314.976L396.295 298.924Z" fill="white" fill-opacity="0.05"/>
<path id="Vector_8" opacity="0.94" d="M421.752 294.601L422.088 298.107L427.853 306.82L423.395 309.769L404.623 281.404L409.082 278.454L417.21 290.734L417.288 290.673L414.921 274.59L419.38 271.641L421.548 288.389L438.155 300.01L433.572 303.042L421.755 294.605L421.752 294.601Z" fill="white" fill-opacity="0.05"/>
<path id="Vector_9" opacity="0.94" d="M434.349 279.329L440.63 275.536L443.142 279.694L436.86 283.487L442.004 292.017L449.912 287.246L452.423 291.404L439.94 298.94L422.364 269.815L434.847 262.28L437.358 266.438L429.451 271.209L434.349 279.322L434.349 279.329Z" fill="white" fill-opacity="0.05"/>
<path id="Vector_10" opacity="0.94" d="M464.784 284.543C464.107 283.916 463.679 283.54 462.347 281.114L459.773 276.43C458.252 273.662 456.755 273.155 454.626 274.321L453.005 275.208L459.67 287.348L454.982 289.919L438.613 260.101L445.686 256.217C450.545 253.552 453.868 254.662 456.396 259.263L457.683 261.606C459.367 264.673 459.463 267.171 457.914 269.295L457.96 269.379C460.842 269.074 462.824 270.868 464.531 273.974L467.055 278.578C467.848 280.028 468.475 281.068 469.553 281.916L464.782 284.532L464.784 284.543ZM445.641 261.79L450.669 270.946L452.499 269.941C454.245 268.982 454.889 267.631 453.58 265.243L451.964 262.305C450.798 260.175 449.556 259.634 447.893 260.547L445.634 261.789L445.641 261.79Z" fill="white" fill-opacity="0.05"/>
</g>
<g id="Group 48">
<path id="Vector_11" opacity="0.94" d="M566.897 209.561L583.035 206.02L584.077 210.768L578.618 211.966L584.863 240.445L579.64 241.593L573.395 213.113L567.936 214.311L566.893 209.564L566.897 209.561Z" fill="white"/>
<path id="Vector_12" opacity="0.94" d="M597.542 237.928L592.277 238.859L586.368 205.362L591.63 204.435L594.164 218.791L600.144 217.734L597.61 203.378L602.969 202.432L608.878 235.929L603.519 236.875L600.984 222.519L595.004 223.575L597.538 237.931L597.542 237.928Z" fill="white"/>
<path id="Vector_13" opacity="0.94" d="M615.083 215.199L622.357 214.226L622.999 219.045L615.724 220.018L617.045 229.89L626.199 228.666L626.845 233.482L612.397 235.414L607.895 201.701L622.343 199.769L622.989 204.585L613.834 205.809L615.09 215.2L615.083 215.199Z" fill="white"/>
<path id="Vector_14" opacity="0.94" d="M651.121 205.062L651.211 206.272C651.475 209.759 650.576 212.019 648.285 213.317L648.293 213.417C651.238 214.313 652.541 216.749 652.813 220.335L653.024 223.095C653.422 228.327 650.872 231.347 645.54 231.754L637.157 232.39L634.582 198.472L642.628 197.859C648.151 197.441 650.72 199.826 651.118 205.058L651.121 205.062ZM641.334 216.72L642.125 227.137L645.181 226.905C646.976 226.77 647.882 225.872 647.69 223.354L647.466 220.398C647.225 217.249 646.138 216.358 643.713 216.541L641.337 216.724L641.334 216.72ZM640.284 202.912L640.967 211.876L643.05 211.719C645.038 211.567 646.182 210.605 645.976 207.891L645.833 206.003C645.646 203.581 644.742 202.579 642.854 202.723L640.287 202.916L640.284 202.912Z" fill="white"/>
<path id="Vector_15" opacity="0.94" d="M660.45 196.829L661.33 223.056C661.41 225.485 662.511 226.322 664.208 226.263C665.908 226.208 666.947 225.295 666.867 222.866L665.986 196.639L671.037 196.467L671.905 222.354C672.089 227.794 669.471 230.993 664.225 231.171C658.979 231.349 656.154 228.331 655.97 222.891L655.102 197.004L660.447 196.825L660.45 196.829Z" fill="white"/>
<path id="Vector_16" opacity="0.94" d="M675.476 196.474L680.824 196.461L680.914 230.477L675.566 230.491L675.476 196.474Z" fill="white"/>
<path id="Vector_17" opacity="0.94" d="M685.422 196.463L690.765 196.597L690.026 225.746L698.82 225.967L698.699 230.825L684.561 230.47L685.422 196.463Z" fill="white"/>
<path id="Vector_18" opacity="0.94" d="M702.899 196.961L711.337 197.506C716.674 197.851 719.097 200.979 718.75 206.41L717.637 223.578C717.285 229.012 714.474 231.797 709.14 231.456L700.701 230.911L702.895 196.964L702.899 196.961ZM707.921 202.156L706.352 226.406L709.36 226.597C711.056 226.707 712.134 225.902 712.289 223.478L713.434 205.825C713.589 203.401 712.628 202.462 710.932 202.352L707.924 202.16L707.921 202.156Z" fill="white"/>
<path id="Vector_19" opacity="0.94" d="M727.544 213.251L734.839 214.022L734.329 218.854L727.034 218.083L725.984 227.99L735.164 228.963L734.654 233.795L720.158 232.261L723.743 198.434L738.239 199.968L737.73 204.8L728.549 203.828L727.551 213.251L727.544 213.251Z" fill="white"/>
<path id="Vector_20" opacity="0.94" d="M748.647 235.785C748.486 234.879 748.372 234.318 748.776 231.577L749.553 226.29C750.01 223.164 749.126 221.855 746.724 221.501L744.897 221.23L742.879 234.93L737.591 234.154L742.551 200.498L750.531 201.671C756.012 202.479 757.993 205.373 757.229 210.564L756.837 213.208C756.325 216.668 754.896 218.719 752.375 219.475L752.362 219.572C754.845 221.068 755.341 223.695 754.823 227.204L754.059 232.395C753.819 234.028 753.69 235.239 754.033 236.567L748.649 235.771L748.647 235.785ZM747.126 206.094L745.6 216.43L747.666 216.736C749.638 217.026 750.969 216.338 751.364 213.642L751.854 210.324C752.211 207.919 751.546 206.74 749.673 206.466L747.123 206.09L747.126 206.094Z" fill="white"/>
</g>
<g id="Group 62">
<path id="Vector_21" opacity="0.94" d="M875.346 237.692L890.34 244.637L888.299 249.045L883.229 246.696L870.971 273.152L866.12 270.909L878.381 244.45L873.311 242.102L875.353 237.693L875.346 237.692Z" fill="white" fill-opacity="0.5"/>
<path id="Vector_22" opacity="0.94" d="M882.579 278.822L877.829 276.377L893.401 246.136L898.152 248.581L891.476 261.544L896.878 264.324L903.554 251.361L908.391 253.852L892.818 284.093L887.982 281.602L894.658 268.639L889.256 265.859L882.579 278.822Z" fill="white" fill-opacity="0.5"/>
<path id="Vector_23" opacity="0.94" d="M910.299 271.35L916.677 274.982L914.272 279.203L907.897 275.574L902.967 284.232L910.99 288.8L908.585 293.02L895.918 285.806L912.753 256.247L925.42 263.461L923.015 267.681L914.991 263.113L910.303 271.347L910.299 271.35Z" fill="white" fill-opacity="0.5"/>
<path id="Vector_24" opacity="0.94" d="M937.348 296.171L934.896 299.965C931.941 304.534 927.964 305.67 923.558 302.822C919.153 299.974 918.554 295.883 921.509 291.314L931.113 276.462C934.068 271.894 938.044 270.758 942.45 273.606C946.856 276.454 947.455 280.545 944.5 285.113L942.705 287.889L938.462 285.147L940.442 282.085C941.761 280.044 941.365 278.688 939.937 277.766C938.508 276.844 937.108 277.037 935.789 279.078L925.814 294.502C924.495 296.542 924.917 297.86 926.346 298.781C927.775 299.703 929.149 299.55 930.467 297.509L933.105 293.428L937.348 296.171Z" fill="white" fill-opacity="0.5"/>
<path id="Vector_25" opacity="0.94" d="M941.999 314.909C942.268 314.027 942.413 313.478 944.015 311.213L947.102 306.848C948.924 304.27 948.725 302.7 946.745 301.297L945.236 300.231L937.241 311.539L932.876 308.453L952.52 280.674L959.107 285.332C963.633 288.53 964.089 292.007 961.055 296.293L959.513 298.474C957.493 301.33 955.288 302.512 952.703 302.05L952.646 302.131C954.183 304.587 953.438 307.153 951.391 310.055L948.36 314.339C947.406 315.686 946.745 316.708 946.448 318.048L942.003 314.906L941.999 314.909ZM954.07 287.734L948.039 296.267L949.744 297.475C951.369 298.627 952.869 298.613 954.441 296.39L956.376 293.65C957.779 291.663 957.721 290.315 956.173 289.223L954.07 287.734Z" fill="white" fill-opacity="0.5"/>
<path id="Vector_26" opacity="0.94" d="M964.733 307.264L970.547 311.737L967.583 315.588L961.769 311.116L955.696 319.012L963.015 324.642L960.051 328.494L948.492 319.607L969.234 292.637L980.792 301.524L977.828 305.376L970.506 299.749L964.73 307.26L964.733 307.264Z" fill="white" fill-opacity="0.5"/>
<path id="Vector_27" opacity="0.94" d="M975.661 341.438L971.521 337.979L974.768 332.648L969.734 328.442L965.067 332.588L961.3 329.442L987.283 306.818L993.288 311.83L975.661 341.431L975.661 341.438ZM973.214 325.341L977.17 328.642L986.259 313.819L986.186 313.757L973.221 325.342L973.214 325.341Z" fill="white" fill-opacity="0.5"/>
<path id="Vector_28" opacity="0.94" d="M997.452 315.345L1009.74 326.383L1006.5 329.997L1002.34 326.264L982.859 347.959L978.882 344.387L998.362 322.692L994.205 318.959L997.452 315.345Z" fill="white" fill-opacity="0.5"/>
<path id="Vector_29" opacity="0.94" d="M1006.18 334.223C1009.97 330.32 1014.2 330.087 1017.96 333.741C1021.73 337.395 1021.62 341.626 1017.82 345.532L1005.49 358.219C1001.7 362.122 997.478 362.355 993.709 358.697C989.94 355.04 990.054 350.812 993.851 346.906L1006.18 334.219L1006.18 334.223ZM997.451 350.88C995.758 352.622 995.883 354.031 997.101 355.215C998.32 356.399 999.733 356.483 1001.43 354.741L1014.23 341.566C1015.92 339.824 1015.8 338.415 1014.58 337.231C1013.36 336.047 1011.94 335.963 1010.25 337.705L997.451 350.88Z" fill="white" fill-opacity="0.5"/>
<path id="Vector_30" opacity="0.94" d="M1009.66 374.408C1010.09 373.593 1010.34 373.087 1012.36 371.182L1016.24 367.509C1018.54 365.341 1018.65 363.762 1016.98 361.994L1015.71 360.656L1005.65 370.177L1001.98 366.295L1026.69 342.914L1032.24 348.773C1036.05 352.796 1035.82 356.296 1032 359.904L1030.06 361.743C1027.52 364.147 1025.13 364.871 1022.68 363.912L1022.6 363.981C1023.63 366.688 1022.39 369.063 1019.82 371.498L1016 375.106C1014.81 376.242 1013.95 377.112 1013.41 378.37L1009.66 374.416L1009.66 374.408ZM1026.84 350.13L1019.24 357.311L1020.68 358.827C1022.05 360.273 1023.52 360.555 1025.5 358.685L1027.94 356.38C1029.7 354.708 1029.91 353.377 1028.61 351.999L1026.84 350.127L1026.84 350.13Z" fill="white" fill-opacity="0.5"/>
</g>
<path id="Vector_31" opacity="0.94" d="M1108 454.286L1115.48 469.021L1111.15 471.222L1108.62 466.24L1082.62 479.443L1080.2 474.676L1106.2 461.473L1103.67 456.491L1108.01 454.287L1108 454.286Z" fill="white"/>
<path id="Vector_32" opacity="0.94" d="M1088.24 491.077L1086.02 486.213L1116.97 472.084L1119.19 476.948L1105.92 483.004L1108.45 488.529L1121.71 482.472L1123.97 487.423L1093.02 501.552L1090.76 496.601L1104.02 490.545L1101.5 485.021L1088.24 491.077Z" fill="white"/>
<path id="Vector_33" opacity="0.94" d="M1114.64 502.353L1117.41 509.151L1112.9 510.98L1110.14 504.183L1100.91 507.936L1104.39 516.49L1099.88 518.319L1094.39 504.811L1125.91 491.998L1131.4 505.505L1126.89 507.335L1123.42 498.781L1114.64 502.35L1114.64 502.353Z" fill="white"/>
<path id="Vector_34" opacity="0.94" d="M1135.66 516.954L1137.41 522.007L1109.84 531.527L1112.71 539.843L1108.12 541.429L1103.51 528.059L1135.66 516.954Z" fill="white"/>
<path id="Vector_35" opacity="0.94" d="M1113.74 559.896L1112.18 554.733L1117.82 552.064L1115.93 545.782L1109.75 546.682L1108.34 541.981L1142.48 537.364L1144.74 544.858L1113.74 559.896ZM1120.55 545.102L1122.04 550.035L1137.78 542.646L1137.75 542.554L1120.55 545.103L1120.55 545.102Z" fill="white"/>
<path id="Vector_36" opacity="0.94" d="M1148.5 558.473L1123.07 564.983C1120.72 565.585 1120.14 566.839 1120.56 568.488C1120.98 570.136 1122.09 570.954 1124.45 570.356L1149.87 563.846L1151.12 568.744L1126.03 575.169C1120.75 576.518 1117.07 574.651 1115.76 569.567C1114.46 564.483 1116.8 561.076 1122.07 559.727L1147.17 553.301L1148.5 558.48L1148.5 558.473Z" fill="white"/>
<path id="Vector_37" opacity="0.94" d="M1144.03 580.051L1144.01 579.954L1119.89 585.022L1118.91 580.313L1152.2 573.319L1153.58 579.88L1134.76 589.346L1134.78 589.441L1154.71 585.252L1155.69 589.91L1122.4 596.905L1121.27 591.53L1144.03 580.041L1144.03 580.051Z" fill="white"/>
<path id="Vector_38" opacity="0.94" d="M1138.06 613.56L1133.6 614.298C1128.23 615.19 1124.72 613.015 1123.86 607.833C1123.01 602.655 1125.63 599.46 1131 598.568L1148.45 595.671C1153.82 594.778 1157.33 596.954 1158.19 602.136C1159.05 607.314 1156.42 610.509 1151.05 611.401L1147.79 611.941L1146.97 606.954L1150.56 606.357C1152.96 605.958 1153.69 604.753 1153.41 603.077C1153.13 601.401 1152.05 600.495 1149.65 600.894L1131.53 603.902C1129.13 604.301 1128.45 605.499 1128.72 607.178C1129 608.854 1130.04 609.767 1132.43 609.369L1137.23 608.571L1138.06 613.559L1138.06 613.56Z" fill="white"/>
<path id="Vector_39" opacity="0.94" d="M1126.62 623.815L1125.97 618.508L1159.74 614.379L1160.39 619.686L1145.92 621.456L1146.65 627.482L1161.12 625.712L1161.79 631.116L1128.02 635.245L1127.36 629.842L1141.83 628.072L1141.09 622.045L1126.62 623.815Z" fill="white"/>
<path id="Vector_40" opacity="0.94" d="M1148.39 642.529L1148.97 649.844L1144.13 650.233L1143.54 642.917L1133.61 643.712L1134.34 652.916L1129.5 653.305L1128.34 638.77L1162.25 636.053L1163.41 650.587L1158.56 650.976L1157.83 641.772L1148.38 642.528L1148.39 642.529Z" fill="white"/>
<path id="Vector_41" opacity="0.94" d="M1130.12 667.439C1130.98 667.113 1131.51 666.899 1134.28 666.788L1139.62 666.58C1142.78 666.456 1143.9 665.342 1143.81 662.911L1143.74 661.068L1129.89 661.615L1129.69 656.274L1163.68 654.931L1164 662.991C1164.21 668.524 1161.73 671.01 1156.49 671.213L1153.82 671.319C1150.32 671.459 1148.04 670.431 1146.83 668.091L1146.74 668.096C1145.73 670.811 1143.23 671.783 1139.69 671.924L1134.45 672.131C1132.8 672.196 1131.58 672.289 1130.34 672.877L1130.13 667.436L1130.12 667.439ZM1159.03 660.462L1148.59 660.874L1148.67 662.965C1148.75 664.954 1149.67 666.135 1152.39 666.028L1155.74 665.894C1158.17 665.796 1159.21 664.928 1159.13 663.039L1159.03 660.462Z" fill="white"/>
</g>
</g>
<defs>
<clipPath id="clip0_164_1182">
<rect width="968" height="908" fill="white" transform="translate(0 590.933) rotate(-37.6233)"/>
</clipPath>
</defs>
</svg>
