<svg width="968" height="908" viewBox="0 0 968 908" fill="none" xmlns="http://www.w3.org/2000/svg" overflow="visible">
  <g transform="rotate(113.925) scale(0.9996301368493657 0.9996301368493657) translate(-392.708 -1253.52)">
    <g id="Group">
    <path id="Vector" opacity="0.94" d="M255.832 909.361L246.03 896.051L249.942 893.168L253.258 897.668L276.738 880.371L279.909 884.675L256.429 901.972L259.746 906.471L255.834 909.354L255.832 909.361Z" fill="white" fill-opacity="0.05"/>
    <path id="Vector_2" opacity="0.94" d="M269.273 869.803L272.267 874.234L244.069 893.278L241.075 888.847L253.161 880.687L249.758 875.652L237.672 883.812L234.626 879.301L262.824 860.257L265.87 864.768L253.784 872.929L257.187 877.964L269.273 869.803Z" fill="white" fill-opacity="0.05"/>
    <path id="Vector_3" opacity="0.94" d="M241.358 863.036L237.508 856.787L241.648 854.236L245.498 860.485L253.981 855.255L249.133 847.391L253.273 844.84L260.925 857.257L231.956 875.111L224.303 862.694L228.443 860.143L233.291 868.007L241.363 863.034L241.358 863.036Z" fill="white" fill-opacity="0.05"/>
    <path id="Vector_4" opacity="0.94" d="M218.935 853.448L211.045 838.923L215.314 836.601L217.981 841.513L243.608 827.594L246.158 832.293L220.531 846.212L223.197 851.124L218.928 853.446L218.935 853.448Z" fill="white" fill-opacity="0.05"/>
    <path id="Vector_5" opacity="0.94" d="M237.671 816.116L240.028 820.916L209.483 835.902L207.126 831.102L220.217 824.682L217.543 819.227L204.451 825.646L202.054 820.755L232.599 805.769L234.997 810.66L221.905 817.08L224.58 822.535L237.671 816.116Z" fill="white" fill-opacity="0.05"/>
    <path id="Vector_6" opacity="0.94" d="M200.114 816.431L197.917 811.553L228.943 797.577L231.14 802.455L200.114 816.431Z" fill="white" fill-opacity="0.05"/>
    <path id="Vector_7" opacity="0.94" d="M202.782 799.18L202.822 799.271L225.61 789.892L227.442 794.34L195.977 807.288L193.423 801.081L210.205 788.341L210.165 788.251L191.331 796L189.518 791.597L220.984 778.649L223.076 783.73L202.782 799.18Z" fill="white" fill-opacity="0.05"/>
    <path id="Vector_8" opacity="0.94" d="M204.611 773.414L208.099 773.919L217.932 770.379L219.742 775.411L187.726 786.936L185.916 781.903L199.776 776.912L199.736 776.822L183.544 775.312L181.733 770.28L198.525 772.141L213.754 758.753L215.616 763.925L204.616 773.412L204.611 773.414Z" fill="white" fill-opacity="0.05"/>
    <path id="Vector_9" opacity="0.94" d="M192.752 757.554L190.554 750.55L195.19 749.094L197.388 756.097L206.897 753.118L204.133 744.303L208.77 742.847L213.137 756.765L180.666 766.948L176.299 753.03L180.936 751.574L183.699 760.39L192.745 757.551L192.752 757.554Z" fill="white" fill-opacity="0.05"/>
    <path id="Vector_10" opacity="0.94" d="M205.03 729.208C204.26 729.718 203.793 730.044 201.12 730.765L195.957 732.157C192.907 732.979 192.059 734.314 192.689 736.66L193.167 738.445L206.545 734.843L207.933 740.008L175.074 748.854L172.975 741.059C171.536 735.705 173.402 732.739 178.473 731.371L181.054 730.675C184.434 729.766 186.885 730.265 188.583 732.272L188.674 732.248C189.062 729.375 191.275 727.873 194.697 726.95L199.77 725.587C201.367 725.161 202.526 724.798 203.606 723.95L205.019 729.208L205.03 729.208ZM178.38 742.423L188.471 739.706L187.928 737.689C187.409 735.765 186.248 734.818 183.617 735.525L180.379 736.399C178.033 737.029 177.213 738.107 177.706 739.94L178.378 742.429L178.38 742.423Z" fill="white" fill-opacity="0.05"/>
    <g id="Group 48">
    <path id="Vector_11" opacity="0.94" d="M156.343 612.199L156.726 595.676L161.587 595.788L161.458 601.377L190.617 602.054L190.495 607.403L161.335 606.725L161.207 612.315L156.345 612.203L156.343 612.199Z" fill="white" fill-opacity="0.05"/>
    <path id="Vector_12" opacity="0.94" d="M191.175 589.135L190.831 594.473L156.875 592.281L157.221 586.947L171.774 587.885L172.164 581.822L157.611 580.884L157.961 575.451L191.916 577.644L191.567 583.077L177.013 582.139L176.623 588.202L191.177 589.139L191.175 589.135Z" fill="white" fill-opacity="0.05"/>
    <path id="Vector_13" opacity="0.94" d="M173.239 566.703L174.016 559.402L178.851 559.92L178.074 567.221L187.982 568.276L188.961 559.089L193.795 559.602L192.25 574.102L158.417 570.491L159.962 555.991L164.796 556.504L163.816 565.692L173.241 566.696L173.239 566.703Z" fill="white" fill-opacity="0.05"/>
    <path id="Vector_14" opacity="0.94" d="M171.924 529.275L173.121 529.474C176.573 530.043 178.557 531.453 179.275 533.987L179.374 534.003C180.942 531.353 183.619 530.663 187.169 531.248L189.901 531.698C195.08 532.55 197.412 535.744 196.544 541.022L195.176 549.321L161.6 543.788L162.911 535.823C163.814 530.356 166.74 528.424 171.919 529.277L171.924 529.275ZM180.936 541.549L191.248 543.247L191.746 540.222C192.04 538.446 191.382 537.352 188.889 536.943L185.963 536.46C182.846 535.948 181.722 536.793 181.325 539.194L180.94 541.547L180.936 541.549ZM167.267 539.298L176.141 540.758L176.482 538.696C176.805 536.728 176.14 535.388 173.454 534.945L171.586 534.638C169.187 534.246 167.999 534.886 167.692 536.755L167.271 539.296L167.267 539.298Z" fill="white" fill-opacity="0.05"/>
    <path id="Vector_15" opacity="0.94" d="M166.132 518.257L191.831 523.615C194.211 524.112 195.286 523.241 195.63 521.577C195.979 519.912 195.338 518.686 192.958 518.189L167.259 512.831L168.289 507.882L193.654 513.171C198.985 514.281 201.473 517.583 200.404 522.724C199.334 527.864 195.732 529.896 190.401 528.786L165.036 523.496L166.127 518.259L166.132 518.257Z" fill="white" fill-opacity="0.05"/>
    <path id="Vector_16" opacity="0.94" d="M169.347 503.569L170.601 498.368L203.683 506.339L202.429 511.54L169.347 503.569Z" fill="white" fill-opacity="0.05"/>
    <path id="Vector_17" opacity="0.94" d="M171.693 493.899L173.089 488.738L201.244 496.362L203.542 487.867L208.235 489.136L204.54 502.792L171.693 493.899Z" fill="white" fill-opacity="0.05"/>
    <path id="Vector_18" opacity="0.94" d="M176.317 477.032L178.846 468.959C180.445 463.854 184.059 462.24 189.256 463.865L205.677 469.013C210.876 470.642 212.917 474.035 211.322 479.138L208.793 487.21L176.319 477.037L176.317 477.032ZM182.556 473.382L205.753 480.651L206.652 477.773C207.16 476.15 206.633 474.912 204.314 474.187L187.427 468.893C185.108 468.168 183.968 468.879 183.459 470.502L182.56 473.38L182.556 473.382Z" fill="white" fill-opacity="0.05"/>
    <path id="Vector_19" opacity="0.94" d="M197.987 456.938L200.465 450.03L205.04 451.67L202.563 458.578L211.943 461.946L215.063 453.254L219.639 454.894L214.714 468.62L182.687 457.122L187.611 443.396L192.187 445.036L189.067 453.728L197.989 456.931L197.987 456.938Z" fill="white" fill-opacity="0.05"/>
    <path id="Vector_20" opacity="0.94" d="M224.888 441.766C223.969 441.708 223.397 441.686 220.829 440.643L215.874 438.636C212.945 437.451 211.462 438 210.55 440.251L209.853 441.962L222.69 447.169L220.683 452.124L189.147 439.331L192.178 431.853C194.262 426.718 197.544 425.478 202.408 427.45L204.885 428.457C208.126 429.774 209.781 431.649 209.919 434.279L210.01 434.314C212.052 432.255 214.723 432.396 218.011 433.731L222.875 435.703C224.406 436.323 225.552 436.735 226.924 436.716L224.875 441.761L224.888 441.766ZM195.67 436.21L205.354 440.142L206.141 438.207C206.891 436.358 206.537 434.902 204.01 433.879L200.901 432.617C198.649 431.7 197.345 432.068 196.635 433.822L195.665 436.212L195.67 436.21Z" fill="white" fill-opacity="0.05"/>
    </g>
    <g id="Group 63">
    <path id="Vector_21" opacity="0.94" d="M256.757 319.076L267.058 306.148L270.859 309.177L267.375 313.548L290.184 331.729L286.855 335.912L264.044 317.727L260.56 322.099L256.759 319.07L256.757 319.076Z" fill="white" fill-opacity="0.05"/>
    <path id="Vector_22" opacity="0.94" d="M298.446 321.79L294.944 325.828L269.241 303.529L272.743 299.491L283.76 309.05L287.742 304.458L276.724 294.899L280.291 290.788L305.994 313.087L302.427 317.198L291.409 307.638L287.428 312.23L298.446 321.79Z" fill="white" fill-opacity="0.05"/>
    <path id="Vector_23" opacity="0.94" d="M297.75 293.078L302.791 287.74L306.323 291.077L301.286 296.414L308.533 303.256L314.873 296.54L318.405 299.878L308.393 310.48L283.652 287.115L293.664 276.513L297.196 279.851L290.856 286.566L297.748 293.074L297.75 293.078Z" fill="white" fill-opacity="0.05"/>
    <path id="Vector_24" opacity="0.94" d="M328.281 272.669L331.388 275.951C335.129 279.905 335.291 284.039 331.479 287.647C327.667 291.254 323.549 290.867 319.809 286.913L307.649 274.06C303.909 270.106 303.747 265.972 307.559 262.364C311.371 258.757 315.488 259.144 319.229 263.098L321.502 265.5L317.831 268.974L315.324 266.325C313.653 264.56 312.241 264.623 311.007 265.793C309.773 266.963 309.628 268.37 311.299 270.135L323.927 283.484C325.598 285.249 326.978 285.151 328.212 283.981C329.447 282.81 329.623 281.439 327.952 279.673L324.611 276.143L328.281 272.669Z" fill="white" fill-opacity="0.05"/>
    <path id="Vector_25" opacity="0.94" d="M347.595 272.588C346.801 272.117 346.302 271.846 344.481 269.753L340.97 265.719C338.895 263.337 337.322 263.158 335.49 264.75L334.096 265.964L343.193 276.414L339.159 279.925L316.815 254.252L322.902 248.953C327.083 245.312 330.569 245.692 334.017 249.657L335.771 251.672C338.069 254.312 338.694 256.736 337.634 259.139L337.699 259.213C340.45 258.301 342.767 259.633 345.102 262.31L348.548 266.27C349.631 267.516 350.468 268.401 351.7 269.008L347.593 272.584L347.595 272.588ZM324.043 254.418L330.907 262.301L332.486 260.93C333.99 259.624 334.332 258.162 332.544 256.108L330.339 253.579C328.74 251.744 327.417 251.481 325.988 252.726L324.043 254.418Z" fill="white" fill-opacity="0.05"/>
    <path id="Vector_26" opacity="0.94" d="M345.551 248.681L351.275 244.09L354.317 247.883L348.592 252.474L354.828 260.247L362.034 254.468L365.075 258.261L353.7 267.39L332.401 240.842L343.776 231.713L346.818 235.506L339.614 241.29L345.546 248.683L345.551 248.681Z" fill="white" fill-opacity="0.05"/>
    <path id="Vector_27" opacity="0.94" d="M381.354 246.156L377.011 249.361L372.599 244.941L367.319 248.838L370.243 254.356L366.292 257.272L350.459 226.659L356.753 222.01L381.348 246.154L381.354 246.156ZM365.129 244.721L369.275 241.658L357.021 229.312L356.944 229.368L365.132 244.714L365.129 244.721Z" fill="white" fill-opacity="0.05"/>
    <path id="Vector_28" opacity="0.94" d="M361.156 218.795L374.796 209.463L377.539 213.475L372.926 216.632L389.398 240.704L384.984 243.723L368.512 219.651L363.9 222.807L361.156 218.795Z" fill="white" fill-opacity="0.05"/>
    <path id="Vector_29" opacity="0.94" d="M381.572 214.782C378.677 210.172 379.451 206.012 383.894 203.218C388.338 200.424 392.424 201.534 395.321 206.149L404.731 221.137C407.626 225.747 406.852 229.907 402.404 232.703C397.956 235.499 393.875 234.387 390.977 229.772L381.567 214.784L381.572 214.782ZM395.693 227.215C396.985 229.272 398.384 229.485 399.823 228.581C401.262 227.678 401.679 226.324 400.387 224.266L390.614 208.703C389.322 206.645 387.924 206.432 386.484 207.336C385.045 208.24 384.628 209.594 385.92 211.652L395.693 227.215Z" fill="white" fill-opacity="0.05"/>
    <path id="Vector_30" opacity="0.94" d="M421.452 220.923C420.763 220.309 420.33 219.943 418.957 217.532L416.307 212.889C414.743 210.145 413.235 209.661 411.122 210.864L409.521 211.78L416.391 223.813L411.748 226.463L394.878 196.905L401.887 192.902C406.698 190.156 410.045 191.21 412.648 195.772L413.976 198.095C415.71 201.136 415.847 203.63 414.335 205.784L414.384 205.871C417.258 205.516 419.274 207.279 421.031 210.36L423.633 214.921C424.453 216.355 425.097 217.39 426.19 218.22L421.461 220.919L421.452 220.923ZM401.925 198.477L407.106 207.557L408.919 206.52C410.65 205.53 411.271 204.172 409.922 201.804L408.26 198.887C407.053 196.776 405.81 196.256 404.161 197.198L401.923 198.473L401.925 198.477Z" fill="white" fill-opacity="0.05"/>
    </g>
    <g id="Group 60">
    <path id="Vector_31" opacity="0.94" d="M522.385 144.266L538.477 140.488L539.591 145.217L534.149 146.495L540.822 174.893L535.616 176.114L528.944 147.716L523.502 148.993L522.387 144.259L522.385 144.266Z" fill="white"/>
    <path id="Vector_32" opacity="0.94" d="M553.461 172.187L548.207 173.191L541.806 139.769L547.06 138.764L549.804 153.088L555.771 151.945L553.026 137.622L558.374 136.597L564.775 170.02L559.427 171.045L556.683 156.721L550.716 157.863L553.461 172.187Z" fill="white"/>
    <path id="Vector_33" opacity="0.94" d="M570.676 149.198L577.937 148.12L578.648 152.931L571.387 154.009L572.848 163.867L581.985 162.515L582.696 167.326L568.267 169.462L563.279 135.796L577.708 133.66L578.419 138.471L569.282 139.823L570.671 149.2L570.676 149.198Z" fill="white"/>
    <path id="Vector_34" opacity="0.94" d="M589.846 132.227L595.171 131.726L597.893 160.773L606.656 159.954L607.108 164.793L593.02 166.112L589.846 132.227Z" fill="white"/>
    <path id="Vector_35" opacity="0.94" d="M626.388 163.71L621.001 163.999L619.744 157.883L613.189 158.236L612.601 164.451L607.696 164.716L611.297 130.439L619.115 130.018L626.388 163.71ZM613.622 153.588L618.769 153.308L615.317 136.256L615.222 136.26L613.625 153.582L613.622 153.588Z" fill="white"/>
    <path id="Vector_36" opacity="0.94" d="M633.24 129.587L633.544 155.842C633.571 158.271 634.652 159.134 636.354 159.115C638.056 159.096 639.114 158.21 639.09 155.779L638.787 129.524L643.844 129.468L644.143 155.383C644.205 160.829 641.517 163.97 636.267 164.031C631.017 164.092 628.26 161.012 628.198 155.566L627.899 129.651L633.246 129.59L633.24 129.587Z" fill="white"/>
    <path id="Vector_37" opacity="0.94" d="M653.153 139.044L653.054 139.039L652.267 163.677L647.457 163.522L648.545 129.51L655.248 129.724L659.99 150.258L660.088 150.258L660.738 129.898L665.497 130.049L664.409 164.061L658.918 163.882L653.145 139.037L653.153 139.044Z" fill="white"/>
    <path id="Vector_38" opacity="0.94" d="M684.307 152.781L683.969 157.288C683.563 162.719 680.617 165.618 675.377 165.225C670.141 164.83 667.658 161.526 668.063 156.095L669.38 138.448C669.786 133.018 672.732 130.119 677.972 130.512C683.208 130.906 685.692 134.211 685.286 139.641L685.039 142.939L679.995 142.563L680.267 138.929C680.447 136.505 679.45 135.502 677.755 135.377C676.06 135.253 674.922 136.093 674.742 138.517L673.373 156.841C673.193 159.265 674.194 160.217 675.892 160.347C677.587 160.471 678.72 159.682 678.9 157.258L679.261 152.41L684.304 152.787L684.307 152.781Z" fill="white"/>
    <path id="Vector_39" opacity="0.94" d="M691.564 166.331L686.252 165.705L690.239 131.907L695.55 132.533L693.842 147.018L699.873 147.731L701.582 133.245L706.99 133.883L703.004 167.681L697.595 167.044L699.303 152.558L693.272 151.846L691.564 166.331Z" fill="white"/>
    <path id="Vector_40" opacity="0.94" d="M714.909 149.608L722.158 150.771L721.387 155.573L714.138 154.41L712.558 164.254L721.678 165.719L720.907 170.521L706.506 168.206L711.899 134.601L726.3 136.916L725.529 141.719L716.409 140.254L714.906 149.615L714.909 149.608Z" fill="white"/>
    <path id="Vector_41" opacity="0.94" d="M734.792 173.26C734.679 172.347 734.597 171.782 735.145 169.065L736.208 163.825C736.836 160.726 736.019 159.372 733.633 158.888L731.825 158.521L729.078 172.104L723.838 171.04L730.585 137.683L738.494 139.285C743.923 140.384 745.752 143.383 744.707 148.53L744.176 151.152C743.484 154.582 741.945 156.554 739.385 157.175L739.367 157.27C741.766 158.896 742.12 161.548 741.417 165.027L740.377 170.171C740.05 171.788 739.852 172.991 740.129 174.335L734.79 173.256L734.792 173.26ZM734.86 143.512L732.787 153.758L734.838 154.174C736.789 154.57 738.155 153.953 738.697 151.282L739.36 147.995C739.84 145.611 739.242 144.399 737.388 144.025L734.86 143.512Z" fill="white"/>
    </g>
    </g>
  </g>
</svg>
